<?xml version="1.0" encoding="UTF-8"?>
<svg version="1.1" xmlns="http://www.w3.org/2000/svg" width="600" height="600">
<path d="M0 0 C198 0 396 0 600 0 C600 198 600 396 600 600 C402 600 204 600 0 600 C0 402 0 204 0 0 Z " fill="#FEFEFE" transform="translate(0,0)"/>
<path d="M0 0 C3.70274279 3.26053625 7.23443873 6.65830576 10.66015625 10.20703125 C18.36700657 18.18838877 23.24744414 23.20759351 34.765625 23.47265625 C46.43145688 23.34274721 54.3038326 17.67892684 62.640625 10.09765625 C60.50721397 22.64578351 54.00952078 33.70073697 43.640625 41.09765625 C31.9959192 48.48803321 17.20547854 48.61890023 4.015625 46.03515625 C-10.64172499 42.13368824 -20.86883967 32.90504506 -31.73828125 22.91015625 C-38.63730108 16.64568423 -44.07789084 13.42568457 -53.625 13.84765625 C-61.97865691 14.61141917 -66.95857295 16.60933751 -73.359375 22.09765625 C-73.96394531 22.59394531 -74.56851562 23.09023437 -75.19140625 23.6015625 C-76.59223867 24.75306643 -77.97770088 25.92323324 -79.359375 27.09765625 C-78.89733245 16.70169877 -72.60476187 8.3425325 -65.26953125 1.39453125 C-46.78475575 -13.19479492 -18.77019183 -15.13424408 0 0 Z " fill="#3EB2B0" transform="translate(332.359375,215.90234375)"/>
<path d="M0 0 C0.90814453 -0.020625 1.81628906 -0.04125 2.75195312 -0.0625 C8.99611824 -0.09825757 14.03550504 0.91100752 19.8125 3.25 C20.48474609 3.50885986 21.15699219 3.76771973 21.84960938 4.03442383 C30.69219577 7.59845308 37.66510217 15.99591453 44.16625977 22.74853516 C50.92415685 29.71322224 55.35087661 33.34780161 65.1875 33.75 C74.87996172 33.41384526 82.68931636 29.79704378 89.8125 23.25 C90.8025 21.765 90.8025 21.765 91.8125 20.25 C92.4725 20.58 93.1325 20.91 93.8125 21.25 C89.19516045 35.05042827 83.96439241 45.85773573 70.5 52.6875 C58.71217833 58.22671966 42.96133343 58.25269694 30.4375 54.625 C18.29467915 50.02520296 8.63945774 41.89097055 -0.6875 33.0625 C-7.22120042 27.11527479 -13.06181546 23.11260686 -22.0625 22.5625 C-29.8645029 22.93402395 -36.81964892 25.97031256 -42.42578125 31.4296875 C-43.6213271 32.82077811 -44.77963146 34.24551791 -45.8828125 35.7109375 C-46.31335938 36.21882813 -46.74390625 36.72671875 -47.1875 37.25 C-47.8475 37.25 -48.5075 37.25 -49.1875 37.25 C-47.83326046 25.9590278 -40.89732157 16.25891365 -32.1875 9.25 C-26.62793007 5.42178403 -20.65655675 3.08063174 -14.1875 1.25 C-13.27871094 0.99089844 -13.27871094 0.99089844 -12.3515625 0.7265625 C-8.28894612 -0.16809309 -4.14382151 0.02303723 0 0 Z " fill="#3DB1B0" transform="translate(254.1875,262.75)"/>
<path d="M0 0 C3.96 0 7.92 0 12 0 C12 21.12 12 42.24 12 64 C8.04 64 4.08 64 0 64 C-0.495 62.02 -0.495 62.02 -1 60 C-2.11375 60.928125 -2.11375 60.928125 -3.25 61.875 C-9.02644022 66.3386129 -13.79201887 66.81718391 -21 66 C-27.47640543 63.12159759 -30.61829031 57.52889617 -33.12109375 51.13671875 C-35.41549651 42.94825024 -34.86789152 33.62791356 -31 26 C-28.0266778 21.35099106 -24.35678274 18.27326242 -19.1875 16.3125 C-11.36764859 15.19537837 -8.47343732 16.26328134 -1 20 C-0.67 13.4 -0.34 6.8 0 0 Z " fill="#2B3035" transform="translate(354,327)"/>
<path d="M0 0 C0.91201172 -0.03287109 1.82402344 -0.06574219 2.76367188 -0.09960938 C9.33646947 -0.15143789 13.6122239 1.21346876 18.6875 5.4375 C21.60663151 8.33746054 24.29922451 11.52508724 25.6875 15.4375 C25.6875 17.0875 25.6875 18.7375 25.6875 20.4375 C19.2525 20.9325 19.2525 20.9325 12.6875 21.4375 C12.295625 20.509375 11.90375 19.58125 11.5 18.625 C9.46101861 15.03920513 8.5005542 13.92956469 4.6875 12.4375 C0.09074966 11.76052404 -3.23280487 11.86460055 -7.375 14.0625 C-9.55710703 16.33407411 -9.55710703 16.33407411 -9.8125 19.5 C-9.25621521 22.76817316 -8.81721233 23.41924007 -6.3125 25.4375 C-4.45302586 26.13726871 -4.45302586 26.13726871 -2.3984375 26.46484375 C-1.64135498 26.61493896 -0.88427246 26.76503418 -0.10424805 26.91967773 C0.69327881 27.06993408 1.49080566 27.22019043 2.3125 27.375 C11.43622864 29.25801887 19.49301084 30.92902829 25.6875 38.4375 C28.72560986 43.42173006 28.48018226 48.79671639 27.6875 54.4375 C25.26470277 60.46777106 21.62140005 64.172219 15.71484375 66.78125 C6.08596655 69.89811199 -5.06271634 69.60074201 -14.3125 65.4375 C-19.46801236 62.4978558 -22.4889828 57.99189147 -24.3125 52.4375 C-24.59905956 49.98787793 -24.51879155 47.91299862 -24.3125 45.4375 C-20.0225 45.4375 -15.7325 45.4375 -11.3125 45.4375 C-10.3359375 47.48828125 -9.359375 49.5390625 -8.3828125 51.58984375 C-7.4440023 53.60082459 -7.4440023 53.60082459 -5.3125 54.4375 C-3.00328797 54.58629681 -0.6888236 54.65884584 1.625 54.6875 C3.49478516 54.72617187 3.49478516 54.72617187 5.40234375 54.765625 C8.61539709 54.70785043 8.61539709 54.70785043 10.6015625 53.140625 C12.45948831 50.22675574 12.10434208 47.77223668 11.6875 44.4375 C7.77869125 39.90328185 0.85712846 39.45560218 -4.75 38.5625 C-11.71020263 37.30394281 -16.99262122 35.33669562 -21.8125 30 C-25.51517056 24.60785954 -25.27012798 18.7152834 -24.3125 12.4375 C-21.87813361 7.29828208 -18.29305356 4.03752585 -13.296875 1.35546875 C-8.8748389 -0.00471251 -4.6019524 0.0289027 0 0 Z " fill="#2B3035" transform="translate(542.3125,324.5625)"/>
<path d="M0 0 C0.78632813 -0.020625 1.57265625 -0.04125 2.3828125 -0.0625 C8.94187669 -0.10608182 13.21548011 1.44373816 18.875 4.8125 C22.83886916 8.88068151 26.25 14.46991585 26.25 20.25 C19.815 20.745 19.815 20.745 13.25 21.25 C12.30598958 19.4921875 11.36197917 17.734375 10.41796875 15.9765625 C9.20236507 13.94497635 9.20236507 13.94497635 6.25 12.25 C1.70859729 11.65730846 -2.51427219 11.8545671 -6.875 13.25 C-9.0839602 15.60622421 -9.03483861 16.31176274 -9.0625 19.4375 C-8.959375 20.695625 -8.85625 21.95375 -8.75 23.25 C-4.19616536 25.52691732 0.05304958 26.66899801 5.0625 27.625 C12.6491588 29.1762657 19.37120632 31.23077736 24.8125 36.9375 C28.3604013 42.64499339 27.78963266 48.66947954 27.25 55.25 C24.54329478 61.06440381 20.283086 64.61681334 14.375 67 C5.49039411 69.68466388 -5.04012679 69.67030895 -13.5234375 65.7265625 C-18.45564741 62.45572856 -22.86469035 57.90592895 -24.75 52.25 C-24.75 49.94 -24.75 47.63 -24.75 45.25 C-19.8 45.25 -14.85 45.25 -9.75 45.25 C-9.358125 46.343125 -8.96625 47.43625 -8.5625 48.5625 C-7.43098629 51.15031376 -6.7318357 52.26608838 -4.5625 54.1875 C0.6307303 56.149387 4.66181175 55.8852753 9.6875 53.875 C12.33856572 52.50274335 12.33856572 52.50274335 13.25 50.25 C13.289992 48.25039988 13.29346799 46.24952758 13.25 44.25 C8.03872638 40.90136294 3.90959581 39.57719505 -2.1875 38.8125 C-9.81644766 37.66199885 -15.35931675 35.96881389 -20.6875 30.125 C-23.65487916 24.88844854 -23.27971146 19.08439333 -22.75 13.25 C-21.04261292 7.5415673 -16.78413481 4.07659078 -11.75 1.25 C-7.83316136 -0.05561288 -4.08317352 0.02625835 0 0 Z " fill="#2B3034" transform="translate(483.75,324.75)"/>
<path d="M0 0 C4.29 0 8.58 0 13 0 C15.42755144 9.28597346 17.63053948 18.4858532 19 28 C19.66 28 20.32 28 21 28 C21.103125 26.87335938 21.20625 25.74671875 21.3125 24.5859375 C21.92368006 19.70295311 23.38252447 15.25616815 25 10.625 C25.27328125 9.81933594 25.5465625 9.01367188 25.828125 8.18359375 C27.8139881 2.37202381 27.8139881 2.37202381 29 0 C32.63 0 36.26 0 40 0 C40.98328731 3.37384821 41.96175591 6.74897009 42.9375 10.125 C43.35418945 11.55199219 43.35418945 11.55199219 43.77929688 13.0078125 C45.11839694 17.6543284 46.36079453 22.19382217 47 27 C47.33 27 47.66 27 48 27 C48.14622803 26.25314941 48.29245605 25.50629883 48.44311523 24.73681641 C49.10491249 21.36561435 49.77114889 17.99530476 50.4375 14.625 C50.66759766 13.449375 50.89769531 12.27375 51.13476562 11.0625 C51.35712891 9.94101562 51.57949219 8.81953125 51.80859375 7.6640625 C52.01282959 6.62717285 52.21706543 5.5902832 52.42749023 4.52197266 C53 2 53 2 54 0 C58.29 0 62.58 0 67 0 C66.37033414 5.23837507 65.24050105 10.1085848 63.75 15.1640625 C63.53182617 15.91916107 63.31365234 16.67425964 63.08886719 17.45223999 C62.39700376 19.8444704 61.69890603 22.2348186 61 24.625 C60.30203162 27.02257922 59.60544284 29.4205421 58.91113281 31.81918335 C58.4805294 33.30572316 58.0476985 34.79162011 57.61230469 36.27676392 C56.57446964 39.84904607 55.73128315 43.34358426 55 47 C50.38 47 45.76 47 41 47 C40.01791472 43.12571861 39.03923066 39.25063149 38.0625 35.375 C37.64581055 33.73337891 37.64581055 33.73337891 37.22070312 32.05859375 C36.95322266 30.99511719 36.68574219 29.93164062 36.41015625 28.8359375 C36.04096069 27.37486572 36.04096069 27.37486572 35.66430664 25.88427734 C34.98519654 22.93572652 34.46712457 19.98882191 34 17 C33.34 17 32.68 17 32 17 C31.89816406 18.0828125 31.79632813 19.165625 31.69140625 20.28125 C30.99730351 25.83407188 29.45737477 31.12577925 27.9375 36.5 C27.65583984 37.51320313 27.37417969 38.52640625 27.08398438 39.5703125 C26.39436064 42.04828253 25.69787935 44.52434236 25 47 C21.04 47 17.08 47 13 47 C9.63249234 37.5958081 6.84880112 28.08096849 4.25 18.4375 C3.94441162 17.30779785 3.63882324 16.1780957 3.32397461 15.01416016 C1.98510099 9.98972442 0.85742508 5.1445505 0 0 Z " fill="#2A2F34" transform="translate(172,344)"/>
<path d="M0 0 C4.86269966 4.2216658 7.97315565 8.91946695 10 15 C10 15.99 10 16.98 10 18 C6.84493858 18.93619813 4.03413498 19.1057123 0.75 19.0625 C-0.14203125 19.05347656 -1.0340625 19.04445313 -1.953125 19.03515625 C-2.62859375 19.02355469 -3.3040625 19.01195312 -4 19 C-4.37125 18.0925 -4.7425 17.185 -5.125 16.25 C-7.36642947 12.36485558 -8.96215971 10.94414532 -13 9 C-17.74046176 8.16744578 -21.05582377 8.52791189 -25.375 10.6875 C-29.43777677 14.26661287 -31.40245353 17.62208175 -32 23 C-32.4806819 31.41193331 -32.63790916 40.324511 -27 47.0625 C-24.06605909 50.17981221 -22.68210084 50.95452661 -18.25 51.25 C-14.08879714 51.15217787 -11.43570186 50.5195147 -8 48 C-6.04154874 45.0855765 -4.5594783 42.1648236 -3 39 C1.62 39 6.24 39 11 39 C10.61281581 46.2274383 8.62229929 51.33126098 3.4765625 56.54296875 C-4.40154717 63.3613327 -12.91565887 63.68963881 -23 63 C-30.79454392 61.67041426 -36.50326822 57.50320948 -41.31640625 51.3046875 C-47.48383216 41.51873495 -47.09378511 28.35794494 -45.640625 17.25390625 C-43.7097604 9.93488571 -37.97300245 3.6911603 -31.80859375 -0.484375 C-21.89581974 -5.67588473 -9.64487712 -5.86579409 0 0 Z " fill="#2B3035" transform="translate(441,329)"/>
<path d="M0 0 C0.80445557 0.00354492 1.60891113 0.00708984 2.43774414 0.01074219 C8.4392953 0.17936971 12.84060968 1.08992814 17.1875 5.5 C21.54127209 10.13466061 21.33004422 15.01109284 21.28515625 21.109375 C21.2837413 21.83618469 21.28232635 22.56299438 21.28086853 23.31182861 C21.27528792 25.62459494 21.26273904 27.93726312 21.25 30.25 C21.24498249 31.82161318 21.24042002 33.39322789 21.23632812 34.96484375 C21.22532485 38.80993343 21.20807361 42.6549501 21.1875 46.5 C17.2275 46.5 13.2675 46.5 9.1875 46.5 C8.8575 45.18 8.5275 43.86 8.1875 42.5 C6.7953125 43.4590625 6.7953125 43.4590625 5.375 44.4375 C-0.43792839 48.1988066 -6.05468693 48.14360124 -12.8125 47.5 C-17.26661364 45.3901567 -20.00541449 43.11810742 -21.8125 38.5 C-22.53482445 34.20983054 -22.77556103 30.33391408 -20.7109375 26.40234375 C-17.4727333 22.32428446 -13.85120724 19.94499125 -8.8125 18.5 C-5.81707929 18.17297421 -2.88330833 18.21196527 0.125 18.3125 C1.29385742 18.33280273 1.29385742 18.33280273 2.48632812 18.35351562 C4.38702404 18.38849776 6.28735834 18.44229041 8.1875 18.5 C7.06052957 13.53088634 7.06052957 13.53088634 4.1875 9.5 C0.13384668 9.03060258 0.13384668 9.03060258 -3.8125 9.5 C-4.67875 10.7375 -4.67875 10.7375 -5.5625 12 C-7.8125 14.5 -7.8125 14.5 -10.71875 14.83203125 C-13.76333041 14.81424749 -16.77579433 14.71486125 -19.8125 14.5 C-19.54329965 10.64146168 -19.07960588 8.81904314 -16.5625 5.8125 C-10.95757484 1.09926748 -7.19164127 -0.05613277 0 0 Z " fill="#2C3135" transform="translate(98.8125,343.5)"/>
<path d="M0 0 C17.49 0 34.98 0 53 0 C53 4.29 53 8.58 53 13 C46.4 13 39.8 13 33 13 C33 30.16 33 47.32 33 65 C28.38 65 23.76 65 19 65 C19 47.51 19 30.02 19 12 C12.73 12 6.46 12 0 12 C0 8.04 0 4.08 0 0 Z " fill="#292E33" transform="translate(30,326)"/>
<path d="M0 0 C4.59094694 2.31407536 8.16707852 5.11612274 10 10 C10.16902104 12.93478677 10.232654 15.7709612 10.1953125 18.703125 C10.1924826 19.54091492 10.18965271 20.37870483 10.18673706 21.24188232 C10.17556349 23.91140163 10.15046421 26.5805825 10.125 29.25 C10.11496654 31.06249515 10.10584133 32.87499556 10.09765625 34.6875 C10.0756334 39.12512993 10.04112304 43.56250763 10 48 C5.71 48 1.42 48 -3 48 C-3.01401855 46.47862427 -3.01401855 46.47862427 -3.02832031 44.92651367 C-3.06819362 41.16337158 -3.13394342 37.4010494 -3.20751953 33.63842773 C-3.23574489 32.00995415 -3.25695172 30.38134317 -3.27099609 28.75268555 C-3.29240532 26.41123029 -3.33903964 24.07142955 -3.390625 21.73046875 C-3.39185364 21.00224411 -3.39308228 20.27401947 -3.39434814 19.52372742 C-3.48893842 16.25946905 -3.56022377 14.46380298 -5.85449219 12.04418945 C-8.82978089 10.59615694 -10.72646738 10.53235248 -14 11 C-16.78541378 12.45431925 -16.78541378 12.45431925 -19 15 C-19.51714967 17.80382813 -19.72228209 20.02407947 -19.70703125 22.828125 C-19.72215256 23.57713074 -19.73727386 24.32613647 -19.75285339 25.09783936 C-19.79572559 27.48219923 -19.804567 29.86529314 -19.8125 32.25 C-19.83564499 33.86982531 -19.86101034 35.48962052 -19.88867188 37.109375 C-19.95151837 41.07302852 -19.98385743 45.03589224 -20 49 C-24.29 49 -28.58 49 -33 49 C-33 33.16 -33 17.32 -33 1 C-28.71 1 -24.42 1 -20 1 C-19.67 2.32 -19.34 3.64 -19 5 C-18.55011719 4.6390625 -18.10023438 4.278125 -17.63671875 3.90625 C-11.97209693 -0.18045111 -6.91212063 -1.43459107 0 0 Z " fill="#2E3337" transform="translate(301,342)"/>
<path d="M0 0 C3.96 0 7.92 0 12 0 C12 21.12 12 42.24 12 64 C8.04 64 4.08 64 0 64 C0 42.88 0 21.76 0 0 Z " fill="#252A2F" transform="translate(153,326)"/>
<path d="M0 0 C4.29 0 8.58 0 13 0 C13 15.51 13 31.02 13 47 C8.71 47 4.42 47 0 47 C0 31.49 0 15.98 0 0 Z " fill="#2D3236" transform="translate(245,344)"/>
<path d="M0 0 C4.29 0 8.58 0 13 0 C13 15.51 13 31.02 13 47 C8.71 47 4.42 47 0 47 C0 31.49 0 15.98 0 0 Z " fill="#2D3237" transform="translate(130,344)"/>
<path d="M0 0 C3.18054233 1.31370227 4.56283856 2.12875573 6.109375 5.2109375 C7.86809326 10.71850256 8.21695063 17.61261165 6.2421875 23.109375 C4.39420725 26.04868217 2.32964097 28.04867401 -1 29 C-4.4375 29.5 -4.4375 29.5 -8 29 C-10.65634534 26.78524659 -12.45311068 24.09377865 -14 21 C-14.14901491 18.89946284 -14.22138453 16.79312175 -14.25 14.6875 C-14.27578125 13.55699219 -14.3015625 12.42648437 -14.328125 11.26171875 C-13.96880907 7.68994728 -13.05636566 5.89643484 -11 3 C-10.608125 2.401875 -10.21625 1.80375 -9.8125 1.1875 C-6.76064695 -0.81198993 -3.47679391 -0.49571476 0 0 Z " fill="#F8F8F8" transform="translate(347,353)"/>
<path d="M0 0 C1.63001953 0.01353516 1.63001953 0.01353516 3.29296875 0.02734375 C4.12441406 0.03894531 4.95585938 0.05054688 5.8125 0.0625 C5.57759667 4.05585668 5.10547281 6.60350926 2.9375 10 C-1.50891705 12.93463525 -5.98211256 13.06837197 -11.1875 12.0625 C-13.33512184 8.84106724 -13.748568 7.8029533 -13.1875 4.0625 C-9.19069492 0.20351579 -5.35862155 -0.05761959 0 0 Z " fill="#F2F3F3" transform="translate(102.1875,369.9375)"/>
<path d="M0 0 C4.29 0 8.58 0 13 0 C13 3.63 13 7.26 13 11 C8.71 11 4.42 11 0 11 C0 7.37 0 3.74 0 0 Z " fill="#31363B" transform="translate(245,327)"/>
<path d="M0 0 C4.29 0 8.58 0 13 0 C13 3.63 13 7.26 13 11 C8.71 11 4.42 11 0 11 C0 7.37 0 3.74 0 0 Z " fill="#32373B" transform="translate(130,327)"/>
<path d="M0 0 C0.66 0.33 1.32 0.66 2 1 C-0.31 3.31 -2.62 5.62 -5 8 C-5 5 -5 5 -2.5 2.3125 C-1.675 1.549375 -0.85 0.78625 0 0 Z " fill="#41454A" transform="translate(86,346)"/>
</svg>
